<svg width="31" height="27" viewBox="0 0 31 27" fill="none" xmlns="http://www.w3.org/2000/svg">
<path d="M15.1715 19.6844C11.9152 19.7632 8.66704 19.3243 5.54843 18.384C4.10781 17.9273 2.76418 17.2079 1.58542 16.2622C1.13562 15.9391 0.761037 15.5225 0.487376 15.041C0.213715 14.5595 0.0474539 14.0246 0 13.4728C0 11.6815 1.96796 9.92591 5.26451 8.77721C8.46649 7.75936 11.812 7.26606 15.1715 7.31641C18.4861 7.2701 21.7869 7.75448 24.9484 8.7512C26.3359 9.19351 27.6339 9.87814 28.7825 10.7733C29.2246 11.0814 29.5936 11.4829 29.8632 11.9494C30.1329 12.4158 30.2967 12.9359 30.343 13.4728C30.343 15.3345 28.1431 17.2212 24.5995 18.3938C21.5413 19.3034 18.3617 19.7387 15.1715 19.6844ZM15.1715 8.61249C11.9574 8.56953 8.75702 9.03849 5.69039 10.0018C2.6561 11.0605 1.29608 12.5083 1.29608 13.4695C1.29608 14.4752 2.75796 16.0563 5.96782 17.154C8.95126 18.049 12.0577 18.4656 15.1715 18.3884C18.2236 18.4429 21.266 18.03 24.1931 17.1638C27.5254 16.0595 29.0426 14.4763 29.0426 13.4728C28.9879 13.1284 28.8624 12.7991 28.674 12.5057C28.4856 12.2123 28.2384 11.9612 27.9481 11.7682C26.9205 10.974 25.7609 10.3672 24.5226 9.97576C21.498 9.02619 18.3412 8.56597 15.1715 8.61249Z" fill="#007ACC"/>
<path d="M9.0162 26.9852C8.51067 26.9968 8.0111 26.8741 7.56841 26.6297C6.01658 25.7346 5.47908 23.1533 6.13037 19.7235C6.84846 16.4411 8.0927 13.2965 9.81487 10.4114C11.4303 7.51701 13.4985 4.89972 15.9409 2.65877C17.0172 1.67772 18.2588 0.895131 19.6081 0.347285C20.0961 0.118564 20.6285 0 21.1675 0C21.7065 0 22.2389 0.118564 22.7269 0.347285C24.3405 1.27708 24.8748 4.12499 24.1216 7.78024C23.3813 10.8845 22.1694 13.8569 20.5281 16.5938C18.9695 19.454 16.9665 22.0485 14.5939 24.2803C13.4786 25.2998 12.1842 26.1041 10.7761 26.6525C10.2124 26.8617 9.61738 26.9742 9.0162 26.9852ZM10.9376 11.0551C9.29481 13.8178 8.1023 16.8243 7.40477 19.9619C6.8055 23.1208 7.38093 25.0205 8.21753 25.5038C9.08447 26.0055 11.189 25.5298 13.7443 23.2974C16.0092 21.1593 17.921 18.6758 19.4087 15.9392C20.981 13.3227 22.1436 10.4809 22.8559 7.51257C23.5646 4.07189 22.9523 1.96522 22.0832 1.46456C21.7575 1.33975 21.4094 1.28388 21.0609 1.30048C20.7125 1.31708 20.3713 1.40579 20.0589 1.56101C18.8578 2.05662 17.7536 2.76024 16.797 3.6395C14.4635 5.78604 12.488 8.29166 10.9452 11.0616L10.9376 11.0551Z" fill="#007ACC"/>
<path d="M21.3235 26.9993C19.8552 26.9993 17.9901 26.1106 16.0482 24.4407C13.563 22.1794 11.4599 19.531 9.82029 16.5981C8.11971 13.7528 6.88533 10.6536 6.16396 7.41828C5.85111 5.99485 5.79314 4.52723 5.99274 3.08356C6.03889 2.54802 6.20196 2.02911 6.47046 1.56345C6.73896 1.09778 7.10636 0.696688 7.54673 0.388455C9.15816 -0.544592 11.8923 0.414463 14.6828 2.89175C17.0025 5.08315 18.9724 7.61735 20.5238 10.406C22.2233 13.1849 23.4706 16.2162 24.2191 19.3864C24.5454 20.8621 24.5958 22.3854 24.3676 23.8794C24.3133 24.4303 24.1405 24.963 23.8611 25.4409C23.5816 25.9188 23.2021 26.3306 22.7486 26.6481C22.3131 26.8895 21.8213 27.0107 21.3235 26.9993ZM10.9419 15.9457C12.5148 18.7486 14.5238 21.2832 16.8935 23.4545C19.3307 25.5515 21.2639 26.0023 22.0951 25.5135C22.9621 25.0096 23.6014 22.9528 22.9426 19.6248C22.2207 16.598 21.0243 13.7046 19.3978 11.0519C17.9174 8.38288 16.0371 5.95624 13.8223 3.85623C11.1955 1.52415 9.06497 1.0029 8.19694 1.50573C7.9264 1.72559 7.70438 1.99915 7.5449 2.30915C7.38542 2.61915 7.29195 2.95885 7.2704 3.3068C7.0981 4.5943 7.15423 5.90211 7.4362 7.17011C8.13008 10.2642 9.31394 13.2275 10.943 15.9479L10.9419 15.9457Z" fill="#007ACC"/>
<path d="M21.1719 8.0371C21.0759 8.06973 20.6558 8.48379 17.8636 11.294L14.6654 14.5133L13.3017 13.143C12.0683 11.9033 11.9264 11.7684 11.8175 11.7321C11.579 11.6526 11.3491 11.7049 11.1791 11.8762C11.0091 12.0475 10.9571 12.2792 11.036 12.5195C11.0721 12.6298 11.2232 12.7894 12.681 14.2619C13.8319 15.4246 14.3168 15.8977 14.3939 15.9354C14.5431 16.0087 14.7051 16.0197 14.8647 15.968C14.9901 15.9273 15.1448 15.7751 18.439 12.4597C20.9548 9.92741 21.8965 8.96439 21.9345 8.88491C22.1778 8.3815 21.7033 7.85413 21.1719 8.0371Z" fill="white"/>
</svg>
