<svg xmlns="http://www.w3.org/2000/svg" viewBox="0 0 32 32">
    <path d="M15.773 12 20 16.215V16c0-2.21-1.79-4-4-4h-.227m-5.734 1.066 2.066 2.067A3.687 3.687 0 0 0 12 16c0 2.21 1.79 4 4 4 .293 0 .586-.04.867-.105l2.067 2.066c-.895.437-1.88.707-2.934.707A6.667 6.667 0 0 1 9.332 16c0-1.055.27-2.04.707-2.934M2.668 5.691l3.039 3.043.602.598c-2.204 1.734-3.934 4-4.977 6.668 2.309 5.852 8 10 14.668 10 2.066 0 4.04-.398 5.84-1.121l.574.562 3.895 3.891L28 27.641 4.36 4M16 9.332A6.667 6.667 0 0 1 22.668 16c0 .852-.176 1.68-.48 2.426l3.906 3.906c2-1.664 3.597-3.852 4.574-6.332-2.309-5.852-8-10-14.668-10-1.867 0-3.652.332-5.332.934l2.89 2.867A6.753 6.753 0 0 1 16 9.332Zm0 0"/>
</svg>
